%TF.GenerationSoftware,KiCad,Pcbnew,7.0.10*%
%TF.CreationDate,2024-05-14T18:08:24+03:00*%
%TF.ProjectId,Altamplifier,416c7461-6d70-46c6-9966-6965722e6b69,rev?*%
%TF.SameCoordinates,Original*%
%TF.FileFunction,Copper,L2,Bot*%
%TF.FilePolarity,Positive*%
%FSLAX46Y46*%
G04 Gerber Fmt 4.6, Leading zero omitted, Abs format (unit mm)*
G04 Created by KiCad (PCBNEW 7.0.10) date 2024-05-14 18:08:24*
%MOMM*%
%LPD*%
G01*
G04 APERTURE LIST*
G04 Aperture macros list*
%AMRoundRect*
0 Rectangle with rounded corners*
0 $1 Rounding radius*
0 $2 $3 $4 $5 $6 $7 $8 $9 X,Y pos of 4 corners*
0 Add a 4 corners polygon primitive as box body*
4,1,4,$2,$3,$4,$5,$6,$7,$8,$9,$2,$3,0*
0 Add four circle primitives for the rounded corners*
1,1,$1+$1,$2,$3*
1,1,$1+$1,$4,$5*
1,1,$1+$1,$6,$7*
1,1,$1+$1,$8,$9*
0 Add four rect primitives between the rounded corners*
20,1,$1+$1,$2,$3,$4,$5,0*
20,1,$1+$1,$4,$5,$6,$7,0*
20,1,$1+$1,$6,$7,$8,$9,0*
20,1,$1+$1,$8,$9,$2,$3,0*%
G04 Aperture macros list end*
%TA.AperFunction,ComponentPad*%
%ADD10C,1.600000*%
%TD*%
%TA.AperFunction,ComponentPad*%
%ADD11R,1.800000X1.800000*%
%TD*%
%TA.AperFunction,ComponentPad*%
%ADD12C,1.800000*%
%TD*%
%TA.AperFunction,ComponentPad*%
%ADD13RoundRect,0.250000X0.400000X-0.750000X0.400000X0.750000X-0.400000X0.750000X-0.400000X-0.750000X0*%
%TD*%
%TA.AperFunction,ComponentPad*%
%ADD14O,1.300000X2.000000*%
%TD*%
%TA.AperFunction,ComponentPad*%
%ADD15R,1.600000X1.600000*%
%TD*%
%TA.AperFunction,ComponentPad*%
%ADD16O,1.600000X1.600000*%
%TD*%
%TA.AperFunction,ComponentPad*%
%ADD17O,1.800000X2.800000*%
%TD*%
%TA.AperFunction,ComponentPad*%
%ADD18RoundRect,0.250000X-0.750000X-0.400000X0.750000X-0.400000X0.750000X0.400000X-0.750000X0.400000X0*%
%TD*%
%TA.AperFunction,ComponentPad*%
%ADD19O,2.000000X1.300000*%
%TD*%
%TA.AperFunction,ComponentPad*%
%ADD20R,2.020000X5.020000*%
%TD*%
%TA.AperFunction,ComponentPad*%
%ADD21O,2.020000X5.020000*%
%TD*%
%TA.AperFunction,ComponentPad*%
%ADD22R,1.308000X1.308000*%
%TD*%
%TA.AperFunction,ComponentPad*%
%ADD23C,1.308000*%
%TD*%
%TA.AperFunction,ComponentPad*%
%ADD24C,3.000000*%
%TD*%
%TA.AperFunction,ViaPad*%
%ADD25C,0.800000*%
%TD*%
%TA.AperFunction,Conductor*%
%ADD26C,0.250000*%
%TD*%
G04 APERTURE END LIST*
D10*
%TO.P,C5,2*%
%TO.N,GND*%
X142240000Y-50800000D03*
%TO.P,C5,1*%
%TO.N,key*%
X134740000Y-50800000D03*
%TD*%
D11*
%TO.P,D3,1,K*%
%TO.N,GND*%
X151110000Y-39660000D03*
D12*
%TO.P,D3,2,A*%
%TO.N,Net-(D3-A)*%
X148570000Y-39660000D03*
%TD*%
D13*
%TO.P,J2,1,Pin_1*%
%TO.N,Net-(AMP1-OUT3)*%
X116840000Y-81280000D03*
D14*
%TO.P,J2,2,Pin_2*%
%TO.N,Net-(AMP1-OUT4)*%
X118840000Y-81280000D03*
%TD*%
D15*
%TO.P,D2,1,K*%
%TO.N,GND*%
X156210000Y-35560000D03*
D16*
%TO.P,D2,2,A*%
%TO.N,key*%
X163830000Y-35560000D03*
%TD*%
D17*
%TO.P,J3,R*%
%TO.N,GND*%
X85380000Y-33660000D03*
%TO.P,J3,S*%
%TO.N,Net-(C1-Pad2)*%
X77480000Y-35660000D03*
%TO.P,J3,T*%
%TO.N,Net-(J3-PadT)*%
X79880000Y-33660000D03*
%TD*%
D18*
%TO.P,J1,1,Pin_1*%
%TO.N,Net-(AMP1-OUT1)*%
X88900000Y-45720000D03*
D19*
%TO.P,J1,2,Pin_2*%
%TO.N,Net-(AMP1-OUT2)*%
X88900000Y-47720000D03*
%TD*%
D10*
%TO.P,C1,1*%
%TO.N,Net-(AMP1-IN1)*%
X90110000Y-58420000D03*
%TO.P,C1,2*%
%TO.N,Net-(C1-Pad2)*%
X82610000Y-58420000D03*
%TD*%
D20*
%TO.P,J4,1*%
%TO.N,Net-(T1-AA)*%
X153930000Y-78740000D03*
D21*
%TO.P,J4,2*%
%TO.N,Net-(T1-AB)*%
X159110000Y-78740000D03*
%TD*%
D22*
%TO.P,AMP1,1,OUT1*%
%TO.N,Net-(AMP1-OUT1)*%
X114300000Y-52070000D03*
D23*
%TO.P,AMP1,2,OUT2*%
%TO.N,Net-(AMP1-OUT2)*%
X119380000Y-53340000D03*
%TO.P,AMP1,3,VCC1*%
%TO.N,key*%
X114300000Y-54610000D03*
%TO.P,AMP1,4,IN1*%
%TO.N,Net-(AMP1-IN1)*%
X119380000Y-55880000D03*
%TO.P,AMP1,5,IN2*%
X114300000Y-57150000D03*
%TO.P,AMP1,6,SVR*%
%TO.N,Net-(AMP1-SVR)*%
X119380000Y-58420000D03*
%TO.P,AMP1,7,STANDBY*%
%TO.N,Net-(AMP1-STANDBY)*%
X114300000Y-59690000D03*
%TO.P,AMP1,8,PWGND*%
%TO.N,GND*%
X119380000Y-60960000D03*
%TO.P,AMP1,9,SGND*%
X114300000Y-62230000D03*
%TO.P,AMP1,10,DIAGNOSTIC*%
%TO.N,unconnected-(AMP1-DIAGNOSTIC-Pad10)*%
X119380000Y-63500000D03*
%TO.P,AMP1,11,IN4*%
%TO.N,Net-(AMP1-IN3)*%
X114300000Y-64770000D03*
%TO.P,AMP1,12,IN3*%
X119380000Y-66040000D03*
%TO.P,AMP1,13,VCC2*%
%TO.N,key*%
X114300000Y-67310000D03*
%TO.P,AMP1,14,OUT4*%
%TO.N,Net-(AMP1-OUT4)*%
X119380000Y-68580000D03*
%TO.P,AMP1,15,OUT3*%
%TO.N,Net-(AMP1-OUT3)*%
X114300000Y-69850000D03*
%TD*%
D24*
%TO.P,T1,1,AA*%
%TO.N,Net-(T1-AA)*%
X144780000Y-86660000D03*
%TO.P,T1,2,AB*%
%TO.N,Net-(T1-AB)*%
X144780000Y-73660000D03*
%TO.P,T1,3,SA*%
%TO.N,Net-(D1--)*%
X138780000Y-86660000D03*
%TO.P,T1,4,SB*%
%TO.N,Net-(D1-+)*%
X138780000Y-73660000D03*
%TD*%
D25*
%TO.N,key*%
X104140000Y-65315000D03*
X104140000Y-73660000D03*
X104140000Y-60960000D03*
X104140000Y-57695000D03*
%TO.N,Net-(AMP1-IN3)*%
X129540000Y-66040000D03*
X132080000Y-60960000D03*
X119380000Y-40640000D03*
%TO.N,GND*%
X76200000Y-68580000D03*
X96520000Y-48260000D03*
%TO.N,Net-(C1-Pad2)*%
X111760000Y-33020000D03*
X104140000Y-30480000D03*
%TO.N,key*%
X132080000Y-53340000D03*
X109220000Y-55880000D03*
X137160000Y-55880000D03*
X160020000Y-40640000D03*
%TO.N,Net-(AMP1-IN3)*%
X109220000Y-68580000D03*
%TO.N,Net-(R1-Pad2)*%
X88900000Y-63500000D03*
X177800000Y-48260000D03*
%TO.N,Net-(AMP1-STANDBY)*%
X88900000Y-66040000D03*
X96520000Y-83820000D03*
%TO.N,Net-(AMP1-IN1)*%
X116840000Y-55880000D03*
%TD*%
D26*
%TO.N,key*%
X104140000Y-65315000D02*
X104140000Y-73660000D01*
X104140000Y-57695000D02*
X104140000Y-60960000D01*
%TO.N,Net-(AMP1-IN3)*%
X129540000Y-66040000D02*
X127000000Y-68580000D01*
X132805000Y-33745000D02*
X132805000Y-60235000D01*
X132805000Y-60235000D02*
X132080000Y-60960000D01*
X132080000Y-33020000D02*
X132805000Y-33745000D01*
X124460000Y-30480000D02*
X129540000Y-30480000D01*
X129540000Y-30480000D02*
X132080000Y-33020000D01*
X121920000Y-33020000D02*
X124460000Y-30480000D01*
X121920000Y-38100000D02*
X121920000Y-33020000D01*
X119380000Y-40640000D02*
X121920000Y-38100000D01*
%TO.N,GND*%
X76200000Y-66040000D02*
X76200000Y-68580000D01*
X76200000Y-43180000D02*
X76200000Y-66040000D01*
X78740000Y-40640000D02*
X76200000Y-43180000D01*
X88900000Y-40640000D02*
X78740000Y-40640000D01*
X93980000Y-48260000D02*
X91440000Y-45720000D01*
X91440000Y-45720000D02*
X91440000Y-43180000D01*
X91440000Y-43180000D02*
X88900000Y-40640000D01*
X96520000Y-48260000D02*
X93980000Y-48260000D01*
%TO.N,Net-(C1-Pad2)*%
X104140000Y-30480000D02*
X109220000Y-30480000D01*
X109220000Y-30480000D02*
X111760000Y-33020000D01*
%TO.N,key*%
X109220000Y-48260000D02*
X127000000Y-48260000D01*
X106680000Y-50800000D02*
X109220000Y-48260000D01*
X106680000Y-53340000D02*
X106680000Y-50800000D01*
X109220000Y-55880000D02*
X106680000Y-53340000D01*
X127000000Y-48260000D02*
X132080000Y-53340000D01*
X144780000Y-55880000D02*
X137160000Y-55880000D01*
X160020000Y-40640000D02*
X144780000Y-55880000D01*
%TO.N,Net-(AMP1-IN3)*%
X124460000Y-66040000D02*
X119380000Y-66040000D01*
X114300000Y-73660000D02*
X124460000Y-73660000D01*
X124460000Y-73660000D02*
X127000000Y-71120000D01*
X127000000Y-68580000D02*
X124460000Y-66040000D01*
X109220000Y-68580000D02*
X114300000Y-73660000D01*
X127000000Y-71120000D02*
X127000000Y-68580000D01*
%TO.N,Net-(R1-Pad2)*%
X161581000Y-64479000D02*
X118401000Y-64479000D01*
X177800000Y-48260000D02*
X161581000Y-64479000D01*
X117422000Y-63500000D02*
X88900000Y-63500000D01*
X118401000Y-64479000D02*
X117422000Y-63500000D01*
%TO.N,Net-(AMP1-STANDBY)*%
X93980000Y-66040000D02*
X88900000Y-66040000D01*
X96520000Y-68580000D02*
X93980000Y-66040000D01*
X96520000Y-83820000D02*
X96520000Y-68580000D01*
%TO.N,Net-(AMP1-IN1)*%
X116840000Y-58420000D02*
X115570000Y-58420000D01*
X116840000Y-55880000D02*
X116840000Y-58420000D01*
X115570000Y-58420000D02*
X114300000Y-57150000D01*
%TD*%
M02*
