%TF.GenerationSoftware,KiCad,Pcbnew,7.0.10*%
%TF.CreationDate,2024-05-14T18:08:38+03:00*%
%TF.ProjectId,Altamplifier,416c7461-6d70-46c6-9966-6965722e6b69,rev?*%
%TF.SameCoordinates,Original*%
%TF.FileFunction,Drillmap*%
%TF.FilePolarity,Positive*%
%FSLAX45Y45*%
G04 Gerber Fmt 4.5, Leading zero omitted, Abs format (unit mm)*
G04 Created by KiCad (PCBNEW 7.0.10) date 2024-05-14 18:08:38*
%MOMM*%
%LPD*%
G01*
G04 APERTURE LIST*
%ADD10C,0.120000*%
%ADD11C,0.200000*%
%ADD12C,0.115000*%
G04 APERTURE END LIST*
D10*
X17260000Y-8774000D02*
X17260000Y-6974000D01*
D11*
D12*
X8682500Y-4919500D02*
X8797500Y-5034500D01*
X8797500Y-4919500D02*
X8682500Y-5034500D01*
X12031500Y-8220500D02*
X12146500Y-8335500D01*
X12146500Y-8220500D02*
X12031500Y-8335500D01*
D11*
X17514777Y-9091484D02*
X17514777Y-8891484D01*
X17514777Y-8891484D02*
X17562396Y-8891484D01*
X17562396Y-8891484D02*
X17590967Y-8901008D01*
X17590967Y-8901008D02*
X17610015Y-8920055D01*
X17610015Y-8920055D02*
X17619539Y-8939103D01*
X17619539Y-8939103D02*
X17629063Y-8977198D01*
X17629063Y-8977198D02*
X17629063Y-9005770D01*
X17629063Y-9005770D02*
X17619539Y-9043865D01*
X17619539Y-9043865D02*
X17610015Y-9062912D01*
X17610015Y-9062912D02*
X17590967Y-9081960D01*
X17590967Y-9081960D02*
X17562396Y-9091484D01*
X17562396Y-9091484D02*
X17514777Y-9091484D01*
X17714777Y-9091484D02*
X17714777Y-8958150D01*
X17714777Y-8996246D02*
X17724301Y-8977198D01*
X17724301Y-8977198D02*
X17733824Y-8967674D01*
X17733824Y-8967674D02*
X17752872Y-8958150D01*
X17752872Y-8958150D02*
X17771920Y-8958150D01*
X17838586Y-9091484D02*
X17838586Y-8958150D01*
X17838586Y-8891484D02*
X17829063Y-8901008D01*
X17829063Y-8901008D02*
X17838586Y-8910531D01*
X17838586Y-8910531D02*
X17848110Y-8901008D01*
X17848110Y-8901008D02*
X17838586Y-8891484D01*
X17838586Y-8891484D02*
X17838586Y-8910531D01*
X17962396Y-9091484D02*
X17943348Y-9081960D01*
X17943348Y-9081960D02*
X17933824Y-9062912D01*
X17933824Y-9062912D02*
X17933824Y-8891484D01*
X18067158Y-9091484D02*
X18048110Y-9081960D01*
X18048110Y-9081960D02*
X18038586Y-9062912D01*
X18038586Y-9062912D02*
X18038586Y-8891484D01*
X18295729Y-9091484D02*
X18295729Y-8891484D01*
X18295729Y-8891484D02*
X18362396Y-9034341D01*
X18362396Y-9034341D02*
X18429063Y-8891484D01*
X18429063Y-8891484D02*
X18429063Y-9091484D01*
X18610015Y-9091484D02*
X18610015Y-8986722D01*
X18610015Y-8986722D02*
X18600491Y-8967674D01*
X18600491Y-8967674D02*
X18581444Y-8958150D01*
X18581444Y-8958150D02*
X18543348Y-8958150D01*
X18543348Y-8958150D02*
X18524301Y-8967674D01*
X18610015Y-9081960D02*
X18590967Y-9091484D01*
X18590967Y-9091484D02*
X18543348Y-9091484D01*
X18543348Y-9091484D02*
X18524301Y-9081960D01*
X18524301Y-9081960D02*
X18514777Y-9062912D01*
X18514777Y-9062912D02*
X18514777Y-9043865D01*
X18514777Y-9043865D02*
X18524301Y-9024817D01*
X18524301Y-9024817D02*
X18543348Y-9015293D01*
X18543348Y-9015293D02*
X18590967Y-9015293D01*
X18590967Y-9015293D02*
X18610015Y-9005770D01*
X18705253Y-8958150D02*
X18705253Y-9158150D01*
X18705253Y-8967674D02*
X18724301Y-8958150D01*
X18724301Y-8958150D02*
X18762396Y-8958150D01*
X18762396Y-8958150D02*
X18781444Y-8967674D01*
X18781444Y-8967674D02*
X18790967Y-8977198D01*
X18790967Y-8977198D02*
X18800491Y-8996246D01*
X18800491Y-8996246D02*
X18800491Y-9053389D01*
X18800491Y-9053389D02*
X18790967Y-9072436D01*
X18790967Y-9072436D02*
X18781444Y-9081960D01*
X18781444Y-9081960D02*
X18762396Y-9091484D01*
X18762396Y-9091484D02*
X18724301Y-9091484D01*
X18724301Y-9091484D02*
X18705253Y-9081960D01*
X18886205Y-9072436D02*
X18895729Y-9081960D01*
X18895729Y-9081960D02*
X18886205Y-9091484D01*
X18886205Y-9091484D02*
X18876682Y-9081960D01*
X18876682Y-9081960D02*
X18886205Y-9072436D01*
X18886205Y-9072436D02*
X18886205Y-9091484D01*
X18886205Y-8967674D02*
X18895729Y-8977198D01*
X18895729Y-8977198D02*
X18886205Y-8986722D01*
X18886205Y-8986722D02*
X18876682Y-8977198D01*
X18876682Y-8977198D02*
X18886205Y-8967674D01*
X18886205Y-8967674D02*
X18886205Y-8986722D01*
D12*
X17139000Y-9362500D02*
X17254000Y-9477500D01*
X17254000Y-9362500D02*
X17139000Y-9477500D01*
D11*
X17619539Y-9511484D02*
X17505253Y-9511484D01*
X17562396Y-9511484D02*
X17562396Y-9311484D01*
X17562396Y-9311484D02*
X17543348Y-9340055D01*
X17543348Y-9340055D02*
X17524301Y-9359103D01*
X17524301Y-9359103D02*
X17505253Y-9368627D01*
X17705253Y-9492436D02*
X17714777Y-9501960D01*
X17714777Y-9501960D02*
X17705253Y-9511484D01*
X17705253Y-9511484D02*
X17695729Y-9501960D01*
X17695729Y-9501960D02*
X17705253Y-9492436D01*
X17705253Y-9492436D02*
X17705253Y-9511484D01*
X17905253Y-9511484D02*
X17790967Y-9511484D01*
X17848110Y-9511484D02*
X17848110Y-9311484D01*
X17848110Y-9311484D02*
X17829063Y-9340055D01*
X17829063Y-9340055D02*
X17810015Y-9359103D01*
X17810015Y-9359103D02*
X17790967Y-9368627D01*
X18086205Y-9311484D02*
X17990967Y-9311484D01*
X17990967Y-9311484D02*
X17981444Y-9406722D01*
X17981444Y-9406722D02*
X17990967Y-9397198D01*
X17990967Y-9397198D02*
X18010015Y-9387674D01*
X18010015Y-9387674D02*
X18057634Y-9387674D01*
X18057634Y-9387674D02*
X18076682Y-9397198D01*
X18076682Y-9397198D02*
X18086205Y-9406722D01*
X18086205Y-9406722D02*
X18095729Y-9425770D01*
X18095729Y-9425770D02*
X18095729Y-9473389D01*
X18095729Y-9473389D02*
X18086205Y-9492436D01*
X18086205Y-9492436D02*
X18076682Y-9501960D01*
X18076682Y-9501960D02*
X18057634Y-9511484D01*
X18057634Y-9511484D02*
X18010015Y-9511484D01*
X18010015Y-9511484D02*
X17990967Y-9501960D01*
X17990967Y-9501960D02*
X17981444Y-9492436D01*
X18219539Y-9311484D02*
X18238586Y-9311484D01*
X18238586Y-9311484D02*
X18257634Y-9321008D01*
X18257634Y-9321008D02*
X18267158Y-9330531D01*
X18267158Y-9330531D02*
X18276682Y-9349579D01*
X18276682Y-9349579D02*
X18286205Y-9387674D01*
X18286205Y-9387674D02*
X18286205Y-9435293D01*
X18286205Y-9435293D02*
X18276682Y-9473389D01*
X18276682Y-9473389D02*
X18267158Y-9492436D01*
X18267158Y-9492436D02*
X18257634Y-9501960D01*
X18257634Y-9501960D02*
X18238586Y-9511484D01*
X18238586Y-9511484D02*
X18219539Y-9511484D01*
X18219539Y-9511484D02*
X18200491Y-9501960D01*
X18200491Y-9501960D02*
X18190967Y-9492436D01*
X18190967Y-9492436D02*
X18181444Y-9473389D01*
X18181444Y-9473389D02*
X18171920Y-9435293D01*
X18171920Y-9435293D02*
X18171920Y-9387674D01*
X18171920Y-9387674D02*
X18181444Y-9349579D01*
X18181444Y-9349579D02*
X18190967Y-9330531D01*
X18190967Y-9330531D02*
X18200491Y-9321008D01*
X18200491Y-9321008D02*
X18219539Y-9311484D01*
X18371920Y-9511484D02*
X18371920Y-9378150D01*
X18371920Y-9397198D02*
X18381444Y-9387674D01*
X18381444Y-9387674D02*
X18400491Y-9378150D01*
X18400491Y-9378150D02*
X18429063Y-9378150D01*
X18429063Y-9378150D02*
X18448110Y-9387674D01*
X18448110Y-9387674D02*
X18457634Y-9406722D01*
X18457634Y-9406722D02*
X18457634Y-9511484D01*
X18457634Y-9406722D02*
X18467158Y-9387674D01*
X18467158Y-9387674D02*
X18486205Y-9378150D01*
X18486205Y-9378150D02*
X18514777Y-9378150D01*
X18514777Y-9378150D02*
X18533825Y-9387674D01*
X18533825Y-9387674D02*
X18543348Y-9406722D01*
X18543348Y-9406722D02*
X18543348Y-9511484D01*
X18638586Y-9511484D02*
X18638586Y-9378150D01*
X18638586Y-9397198D02*
X18648110Y-9387674D01*
X18648110Y-9387674D02*
X18667158Y-9378150D01*
X18667158Y-9378150D02*
X18695729Y-9378150D01*
X18695729Y-9378150D02*
X18714777Y-9387674D01*
X18714777Y-9387674D02*
X18724301Y-9406722D01*
X18724301Y-9406722D02*
X18724301Y-9511484D01*
X18724301Y-9406722D02*
X18733825Y-9387674D01*
X18733825Y-9387674D02*
X18752872Y-9378150D01*
X18752872Y-9378150D02*
X18781444Y-9378150D01*
X18781444Y-9378150D02*
X18800491Y-9387674D01*
X18800491Y-9387674D02*
X18810015Y-9406722D01*
X18810015Y-9406722D02*
X18810015Y-9511484D01*
X19200491Y-9301960D02*
X19029063Y-9559103D01*
X19457634Y-9311484D02*
X19476682Y-9311484D01*
X19476682Y-9311484D02*
X19495729Y-9321008D01*
X19495729Y-9321008D02*
X19505253Y-9330531D01*
X19505253Y-9330531D02*
X19514777Y-9349579D01*
X19514777Y-9349579D02*
X19524301Y-9387674D01*
X19524301Y-9387674D02*
X19524301Y-9435293D01*
X19524301Y-9435293D02*
X19514777Y-9473389D01*
X19514777Y-9473389D02*
X19505253Y-9492436D01*
X19505253Y-9492436D02*
X19495729Y-9501960D01*
X19495729Y-9501960D02*
X19476682Y-9511484D01*
X19476682Y-9511484D02*
X19457634Y-9511484D01*
X19457634Y-9511484D02*
X19438587Y-9501960D01*
X19438587Y-9501960D02*
X19429063Y-9492436D01*
X19429063Y-9492436D02*
X19419539Y-9473389D01*
X19419539Y-9473389D02*
X19410015Y-9435293D01*
X19410015Y-9435293D02*
X19410015Y-9387674D01*
X19410015Y-9387674D02*
X19419539Y-9349579D01*
X19419539Y-9349579D02*
X19429063Y-9330531D01*
X19429063Y-9330531D02*
X19438587Y-9321008D01*
X19438587Y-9321008D02*
X19457634Y-9311484D01*
X19610015Y-9492436D02*
X19619539Y-9501960D01*
X19619539Y-9501960D02*
X19610015Y-9511484D01*
X19610015Y-9511484D02*
X19600491Y-9501960D01*
X19600491Y-9501960D02*
X19610015Y-9492436D01*
X19610015Y-9492436D02*
X19610015Y-9511484D01*
X19743348Y-9311484D02*
X19762396Y-9311484D01*
X19762396Y-9311484D02*
X19781444Y-9321008D01*
X19781444Y-9321008D02*
X19790968Y-9330531D01*
X19790968Y-9330531D02*
X19800491Y-9349579D01*
X19800491Y-9349579D02*
X19810015Y-9387674D01*
X19810015Y-9387674D02*
X19810015Y-9435293D01*
X19810015Y-9435293D02*
X19800491Y-9473389D01*
X19800491Y-9473389D02*
X19790968Y-9492436D01*
X19790968Y-9492436D02*
X19781444Y-9501960D01*
X19781444Y-9501960D02*
X19762396Y-9511484D01*
X19762396Y-9511484D02*
X19743348Y-9511484D01*
X19743348Y-9511484D02*
X19724301Y-9501960D01*
X19724301Y-9501960D02*
X19714777Y-9492436D01*
X19714777Y-9492436D02*
X19705253Y-9473389D01*
X19705253Y-9473389D02*
X19695729Y-9435293D01*
X19695729Y-9435293D02*
X19695729Y-9387674D01*
X19695729Y-9387674D02*
X19705253Y-9349579D01*
X19705253Y-9349579D02*
X19714777Y-9330531D01*
X19714777Y-9330531D02*
X19724301Y-9321008D01*
X19724301Y-9321008D02*
X19743348Y-9311484D01*
X19981444Y-9378150D02*
X19981444Y-9511484D01*
X19933825Y-9301960D02*
X19886206Y-9444817D01*
X19886206Y-9444817D02*
X20010015Y-9444817D01*
X20181444Y-9311484D02*
X20086206Y-9311484D01*
X20086206Y-9311484D02*
X20076682Y-9406722D01*
X20076682Y-9406722D02*
X20086206Y-9397198D01*
X20086206Y-9397198D02*
X20105253Y-9387674D01*
X20105253Y-9387674D02*
X20152872Y-9387674D01*
X20152872Y-9387674D02*
X20171920Y-9397198D01*
X20171920Y-9397198D02*
X20181444Y-9406722D01*
X20181444Y-9406722D02*
X20190968Y-9425770D01*
X20190968Y-9425770D02*
X20190968Y-9473389D01*
X20190968Y-9473389D02*
X20181444Y-9492436D01*
X20181444Y-9492436D02*
X20171920Y-9501960D01*
X20171920Y-9501960D02*
X20152872Y-9511484D01*
X20152872Y-9511484D02*
X20105253Y-9511484D01*
X20105253Y-9511484D02*
X20086206Y-9501960D01*
X20086206Y-9501960D02*
X20076682Y-9492436D01*
X20257634Y-9311484D02*
X20381444Y-9311484D01*
X20381444Y-9311484D02*
X20314777Y-9387674D01*
X20314777Y-9387674D02*
X20343349Y-9387674D01*
X20343349Y-9387674D02*
X20362396Y-9397198D01*
X20362396Y-9397198D02*
X20371920Y-9406722D01*
X20371920Y-9406722D02*
X20381444Y-9425770D01*
X20381444Y-9425770D02*
X20381444Y-9473389D01*
X20381444Y-9473389D02*
X20371920Y-9492436D01*
X20371920Y-9492436D02*
X20362396Y-9501960D01*
X20362396Y-9501960D02*
X20343349Y-9511484D01*
X20343349Y-9511484D02*
X20286206Y-9511484D01*
X20286206Y-9511484D02*
X20267158Y-9501960D01*
X20267158Y-9501960D02*
X20257634Y-9492436D01*
X20457634Y-9311484D02*
X20457634Y-9349579D01*
X20533825Y-9311484D02*
X20533825Y-9349579D01*
X20829063Y-9587674D02*
X20819539Y-9578150D01*
X20819539Y-9578150D02*
X20800491Y-9549579D01*
X20800491Y-9549579D02*
X20790968Y-9530531D01*
X20790968Y-9530531D02*
X20781444Y-9501960D01*
X20781444Y-9501960D02*
X20771920Y-9454341D01*
X20771920Y-9454341D02*
X20771920Y-9416246D01*
X20771920Y-9416246D02*
X20781444Y-9368627D01*
X20781444Y-9368627D02*
X20790968Y-9340055D01*
X20790968Y-9340055D02*
X20800491Y-9321008D01*
X20800491Y-9321008D02*
X20819539Y-9292436D01*
X20819539Y-9292436D02*
X20829063Y-9282912D01*
X20895730Y-9330531D02*
X20905253Y-9321008D01*
X20905253Y-9321008D02*
X20924301Y-9311484D01*
X20924301Y-9311484D02*
X20971920Y-9311484D01*
X20971920Y-9311484D02*
X20990968Y-9321008D01*
X20990968Y-9321008D02*
X21000491Y-9330531D01*
X21000491Y-9330531D02*
X21010015Y-9349579D01*
X21010015Y-9349579D02*
X21010015Y-9368627D01*
X21010015Y-9368627D02*
X21000491Y-9397198D01*
X21000491Y-9397198D02*
X20886206Y-9511484D01*
X20886206Y-9511484D02*
X21010015Y-9511484D01*
X21248111Y-9511484D02*
X21248111Y-9311484D01*
X21333825Y-9511484D02*
X21333825Y-9406722D01*
X21333825Y-9406722D02*
X21324301Y-9387674D01*
X21324301Y-9387674D02*
X21305253Y-9378150D01*
X21305253Y-9378150D02*
X21276682Y-9378150D01*
X21276682Y-9378150D02*
X21257634Y-9387674D01*
X21257634Y-9387674D02*
X21248111Y-9397198D01*
X21457634Y-9511484D02*
X21438587Y-9501960D01*
X21438587Y-9501960D02*
X21429063Y-9492436D01*
X21429063Y-9492436D02*
X21419539Y-9473389D01*
X21419539Y-9473389D02*
X21419539Y-9416246D01*
X21419539Y-9416246D02*
X21429063Y-9397198D01*
X21429063Y-9397198D02*
X21438587Y-9387674D01*
X21438587Y-9387674D02*
X21457634Y-9378150D01*
X21457634Y-9378150D02*
X21486206Y-9378150D01*
X21486206Y-9378150D02*
X21505253Y-9387674D01*
X21505253Y-9387674D02*
X21514777Y-9397198D01*
X21514777Y-9397198D02*
X21524301Y-9416246D01*
X21524301Y-9416246D02*
X21524301Y-9473389D01*
X21524301Y-9473389D02*
X21514777Y-9492436D01*
X21514777Y-9492436D02*
X21505253Y-9501960D01*
X21505253Y-9501960D02*
X21486206Y-9511484D01*
X21486206Y-9511484D02*
X21457634Y-9511484D01*
X21638587Y-9511484D02*
X21619539Y-9501960D01*
X21619539Y-9501960D02*
X21610015Y-9482912D01*
X21610015Y-9482912D02*
X21610015Y-9311484D01*
X21790968Y-9501960D02*
X21771920Y-9511484D01*
X21771920Y-9511484D02*
X21733825Y-9511484D01*
X21733825Y-9511484D02*
X21714777Y-9501960D01*
X21714777Y-9501960D02*
X21705253Y-9482912D01*
X21705253Y-9482912D02*
X21705253Y-9406722D01*
X21705253Y-9406722D02*
X21714777Y-9387674D01*
X21714777Y-9387674D02*
X21733825Y-9378150D01*
X21733825Y-9378150D02*
X21771920Y-9378150D01*
X21771920Y-9378150D02*
X21790968Y-9387674D01*
X21790968Y-9387674D02*
X21800492Y-9406722D01*
X21800492Y-9406722D02*
X21800492Y-9425770D01*
X21800492Y-9425770D02*
X21705253Y-9444817D01*
X21876682Y-9501960D02*
X21895730Y-9511484D01*
X21895730Y-9511484D02*
X21933825Y-9511484D01*
X21933825Y-9511484D02*
X21952873Y-9501960D01*
X21952873Y-9501960D02*
X21962396Y-9482912D01*
X21962396Y-9482912D02*
X21962396Y-9473389D01*
X21962396Y-9473389D02*
X21952873Y-9454341D01*
X21952873Y-9454341D02*
X21933825Y-9444817D01*
X21933825Y-9444817D02*
X21905253Y-9444817D01*
X21905253Y-9444817D02*
X21886206Y-9435293D01*
X21886206Y-9435293D02*
X21876682Y-9416246D01*
X21876682Y-9416246D02*
X21876682Y-9406722D01*
X21876682Y-9406722D02*
X21886206Y-9387674D01*
X21886206Y-9387674D02*
X21905253Y-9378150D01*
X21905253Y-9378150D02*
X21933825Y-9378150D01*
X21933825Y-9378150D02*
X21952873Y-9387674D01*
X22029063Y-9587674D02*
X22038587Y-9578150D01*
X22038587Y-9578150D02*
X22057634Y-9549579D01*
X22057634Y-9549579D02*
X22067158Y-9530531D01*
X22067158Y-9530531D02*
X22076682Y-9501960D01*
X22076682Y-9501960D02*
X22086206Y-9454341D01*
X22086206Y-9454341D02*
X22086206Y-9416246D01*
X22086206Y-9416246D02*
X22076682Y-9368627D01*
X22076682Y-9368627D02*
X22067158Y-9340055D01*
X22067158Y-9340055D02*
X22057634Y-9321008D01*
X22057634Y-9321008D02*
X22038587Y-9292436D01*
X22038587Y-9292436D02*
X22029063Y-9282912D01*
X22390968Y-9587674D02*
X22381444Y-9578150D01*
X22381444Y-9578150D02*
X22362396Y-9549579D01*
X22362396Y-9549579D02*
X22352873Y-9530531D01*
X22352873Y-9530531D02*
X22343349Y-9501960D01*
X22343349Y-9501960D02*
X22333825Y-9454341D01*
X22333825Y-9454341D02*
X22333825Y-9416246D01*
X22333825Y-9416246D02*
X22343349Y-9368627D01*
X22343349Y-9368627D02*
X22352873Y-9340055D01*
X22352873Y-9340055D02*
X22362396Y-9321008D01*
X22362396Y-9321008D02*
X22381444Y-9292436D01*
X22381444Y-9292436D02*
X22390968Y-9282912D01*
X22467158Y-9378150D02*
X22467158Y-9511484D01*
X22467158Y-9397198D02*
X22476682Y-9387674D01*
X22476682Y-9387674D02*
X22495730Y-9378150D01*
X22495730Y-9378150D02*
X22524301Y-9378150D01*
X22524301Y-9378150D02*
X22543349Y-9387674D01*
X22543349Y-9387674D02*
X22552872Y-9406722D01*
X22552872Y-9406722D02*
X22552872Y-9511484D01*
X22676682Y-9511484D02*
X22657634Y-9501960D01*
X22657634Y-9501960D02*
X22648111Y-9492436D01*
X22648111Y-9492436D02*
X22638587Y-9473389D01*
X22638587Y-9473389D02*
X22638587Y-9416246D01*
X22638587Y-9416246D02*
X22648111Y-9397198D01*
X22648111Y-9397198D02*
X22657634Y-9387674D01*
X22657634Y-9387674D02*
X22676682Y-9378150D01*
X22676682Y-9378150D02*
X22705253Y-9378150D01*
X22705253Y-9378150D02*
X22724301Y-9387674D01*
X22724301Y-9387674D02*
X22733825Y-9397198D01*
X22733825Y-9397198D02*
X22743349Y-9416246D01*
X22743349Y-9416246D02*
X22743349Y-9473389D01*
X22743349Y-9473389D02*
X22733825Y-9492436D01*
X22733825Y-9492436D02*
X22724301Y-9501960D01*
X22724301Y-9501960D02*
X22705253Y-9511484D01*
X22705253Y-9511484D02*
X22676682Y-9511484D01*
X22800492Y-9378150D02*
X22876682Y-9378150D01*
X22829063Y-9311484D02*
X22829063Y-9482912D01*
X22829063Y-9482912D02*
X22838587Y-9501960D01*
X22838587Y-9501960D02*
X22857634Y-9511484D01*
X22857634Y-9511484D02*
X22876682Y-9511484D01*
X23095730Y-9378150D02*
X23095730Y-9578150D01*
X23095730Y-9387674D02*
X23114777Y-9378150D01*
X23114777Y-9378150D02*
X23152873Y-9378150D01*
X23152873Y-9378150D02*
X23171920Y-9387674D01*
X23171920Y-9387674D02*
X23181444Y-9397198D01*
X23181444Y-9397198D02*
X23190968Y-9416246D01*
X23190968Y-9416246D02*
X23190968Y-9473389D01*
X23190968Y-9473389D02*
X23181444Y-9492436D01*
X23181444Y-9492436D02*
X23171920Y-9501960D01*
X23171920Y-9501960D02*
X23152873Y-9511484D01*
X23152873Y-9511484D02*
X23114777Y-9511484D01*
X23114777Y-9511484D02*
X23095730Y-9501960D01*
X23305253Y-9511484D02*
X23286206Y-9501960D01*
X23286206Y-9501960D02*
X23276682Y-9482912D01*
X23276682Y-9482912D02*
X23276682Y-9311484D01*
X23467158Y-9511484D02*
X23467158Y-9406722D01*
X23467158Y-9406722D02*
X23457634Y-9387674D01*
X23457634Y-9387674D02*
X23438587Y-9378150D01*
X23438587Y-9378150D02*
X23400492Y-9378150D01*
X23400492Y-9378150D02*
X23381444Y-9387674D01*
X23467158Y-9501960D02*
X23448111Y-9511484D01*
X23448111Y-9511484D02*
X23400492Y-9511484D01*
X23400492Y-9511484D02*
X23381444Y-9501960D01*
X23381444Y-9501960D02*
X23371920Y-9482912D01*
X23371920Y-9482912D02*
X23371920Y-9463865D01*
X23371920Y-9463865D02*
X23381444Y-9444817D01*
X23381444Y-9444817D02*
X23400492Y-9435293D01*
X23400492Y-9435293D02*
X23448111Y-9435293D01*
X23448111Y-9435293D02*
X23467158Y-9425770D01*
X23533825Y-9378150D02*
X23610015Y-9378150D01*
X23562396Y-9311484D02*
X23562396Y-9482912D01*
X23562396Y-9482912D02*
X23571920Y-9501960D01*
X23571920Y-9501960D02*
X23590968Y-9511484D01*
X23590968Y-9511484D02*
X23610015Y-9511484D01*
X23752873Y-9501960D02*
X23733825Y-9511484D01*
X23733825Y-9511484D02*
X23695730Y-9511484D01*
X23695730Y-9511484D02*
X23676682Y-9501960D01*
X23676682Y-9501960D02*
X23667158Y-9482912D01*
X23667158Y-9482912D02*
X23667158Y-9406722D01*
X23667158Y-9406722D02*
X23676682Y-9387674D01*
X23676682Y-9387674D02*
X23695730Y-9378150D01*
X23695730Y-9378150D02*
X23733825Y-9378150D01*
X23733825Y-9378150D02*
X23752873Y-9387674D01*
X23752873Y-9387674D02*
X23762396Y-9406722D01*
X23762396Y-9406722D02*
X23762396Y-9425770D01*
X23762396Y-9425770D02*
X23667158Y-9444817D01*
X23933825Y-9511484D02*
X23933825Y-9311484D01*
X23933825Y-9501960D02*
X23914777Y-9511484D01*
X23914777Y-9511484D02*
X23876682Y-9511484D01*
X23876682Y-9511484D02*
X23857634Y-9501960D01*
X23857634Y-9501960D02*
X23848111Y-9492436D01*
X23848111Y-9492436D02*
X23838587Y-9473389D01*
X23838587Y-9473389D02*
X23838587Y-9416246D01*
X23838587Y-9416246D02*
X23848111Y-9397198D01*
X23848111Y-9397198D02*
X23857634Y-9387674D01*
X23857634Y-9387674D02*
X23876682Y-9378150D01*
X23876682Y-9378150D02*
X23914777Y-9378150D01*
X23914777Y-9378150D02*
X23933825Y-9387674D01*
X24010015Y-9587674D02*
X24019539Y-9578150D01*
X24019539Y-9578150D02*
X24038587Y-9549579D01*
X24038587Y-9549579D02*
X24048111Y-9530531D01*
X24048111Y-9530531D02*
X24057634Y-9501960D01*
X24057634Y-9501960D02*
X24067158Y-9454341D01*
X24067158Y-9454341D02*
X24067158Y-9416246D01*
X24067158Y-9416246D02*
X24057634Y-9368627D01*
X24057634Y-9368627D02*
X24048111Y-9340055D01*
X24048111Y-9340055D02*
X24038587Y-9321008D01*
X24038587Y-9321008D02*
X24019539Y-9292436D01*
X24019539Y-9292436D02*
X24010015Y-9282912D01*
M02*
